<?xml version="1.0" encoding="UTF-8" standalone="no"?>
<!DOCTYPE svg PUBLIC "-//W3C//DTD SVG 1.1//EN" "http://www.w3.org/Graphics/SVG/1.1/DTD/svg11.dtd">
<svg version="1.1" xmlns="http://www.w3.org/2000/svg" xmlns:xlink="http://www.w3.org/1999/xlink" preserveAspectRatio="xMidYMid meet" viewBox="0 0 640 640" width="640" height="640"><defs><path d="M96.46 43.2L96.82 43.26L97.16 43.32L97.49 43.39L97.82 43.47L98.13 43.57L98.44 43.67L98.73 43.78L99.02 43.9L99.3 44.03L99.57 44.18L99.83 44.32L100.08 44.48L100.33 44.64L100.58 44.82L100.81 44.99L101.04 45.18L101.26 45.38L101.48 45.58L101.69 45.79L101.89 46L102.09 46.22L102.29 46.45L102.48 46.69L102.67 46.93L102.85 47.17L103.03 47.43L103.21 47.68L103.39 47.94L103.56 48.21L103.73 48.48L103.9 48.75L104.07 49.03L104.23 49.31L104.4 49.59L104.56 49.88L104.73 50.17L109.9 61.35L283.05 61.35L283.41 61.36L283.78 61.38L284.14 61.41L284.48 61.46L284.83 61.52L285.18 61.6L285.52 61.69L285.85 61.78L286.17 61.89L286.5 62.02L286.82 62.15L287.12 62.3L287.42 62.46L287.72 62.63L288.01 62.81L288.29 62.99L288.55 63.2L288.82 63.4L289.08 63.62L289.32 63.85L289.55 64.08L289.78 64.33L290 64.58L290.21 64.84L290.4 65.11L290.59 65.39L290.77 65.66L290.93 65.96L291.08 66.26L291.22 66.56L291.35 66.87L291.46 67.18L291.57 67.5L291.66 67.82L291.74 68.15L291.8 68.49L291.85 68.83L291.89 69.17L291.91 69.52L291.92 69.87L291.92 223.26L291.91 223.61L291.89 223.96L291.85 224.3L291.8 224.64L291.74 224.98L291.66 225.3L291.57 225.63L291.46 225.95L291.35 226.27L291.22 226.57L291.08 226.87L290.93 227.17L290.77 227.46L290.59 227.74L290.4 228.02L290.21 228.29L290 228.55L289.78 228.8L289.55 229.05L289.32 229.29L289.08 229.51L288.82 229.73L288.55 229.93L288.29 230.13L288.01 230.32L287.72 230.5L287.42 230.67L287.12 230.83L286.82 230.98L286.5 231.11L286.17 231.23L285.85 231.34L285.52 231.44L285.18 231.53L284.83 231.6L284.48 231.67L284.14 231.71L283.78 231.75L283.41 231.77L283.05 231.78L16.95 231.78L16.59 231.77L16.22 231.75L15.86 231.71L15.52 231.67L15.17 231.6L14.82 231.53L14.48 231.44L14.15 231.34L13.83 231.23L13.5 231.11L13.18 230.98L12.88 230.83L12.58 230.67L12.28 230.5L11.99 230.32L11.71 230.13L11.45 229.93L11.18 229.73L10.92 229.51L10.68 229.29L10.45 229.05L10.22 228.8L10 228.55L9.79 228.29L9.6 228.02L9.41 227.74L9.23 227.46L9.07 227.17L8.92 226.87L8.78 226.57L8.65 226.27L8.54 225.95L8.43 225.63L8.34 225.3L8.26 224.98L8.2 224.64L8.15 224.3L8.11 223.96L8.09 223.61L8.08 223.26L8.08 69.87L8.09 69.52L8.11 69.17L8.15 68.83L8.2 68.49L8.26 68.15L8.34 67.82L8.43 67.5L8.54 67.18L8.65 66.87L8.78 66.56L8.92 66.26L9.07 65.96L9.23 65.66L9.41 65.39L9.6 65.11L9.79 64.84L10 64.58L10.22 64.33L10.45 64.08L10.68 63.85L10.92 63.62L11.18 63.4L11.45 63.2L11.71 62.99L11.99 62.81L12.28 62.63L12.58 62.46L12.88 62.3L13.18 62.15L13.5 62.02L13.83 61.89L14.15 61.78L14.48 61.69L14.82 61.6L15.17 61.52L15.52 61.46L15.86 61.41L16.22 61.38L16.59 61.36L16.95 61.35L21.22 61.35L26.39 50.17L26.51 49.88L26.64 49.59L26.76 49.31L26.9 49.03L27.04 48.75L27.19 48.48L27.33 48.21L27.49 47.94L27.66 47.68L27.82 47.43L28 47.17L28.17 46.93L28.36 46.69L28.56 46.45L28.75 46.22L28.96 46L29.17 45.79L29.39 45.58L29.61 45.38L29.85 45.18L30.09 44.99L30.34 44.82L30.58 44.64L30.85 44.48L31.12 44.32L31.4 44.18L31.69 44.03L31.98 43.9L32.28 43.78L32.6 43.67L32.91 43.57L33.24 43.47L33.58 43.39L33.92 43.32L34.28 43.26L34.63 43.2L35.01 43.16L35.39 43.14L35.78 43.12L36.18 43.12L94.94 43.12L95.33 43.12L95.72 43.14L96.1 43.16L96.46 43.2Z" id="edn4sVM2W"></path><path d="M93.75 148.79C93.75 117.42 118.95 91.94 150 91.94C181.04 91.94 206.25 117.42 206.25 148.79C206.25 180.17 181.04 205.65 150 205.65C118.95 205.65 93.75 180.17 93.75 148.79Z" id="c2k4IZApCx"></path><path d="M251.22 60.01L228.55 60.01L228.55 46.9L251.22 46.9L251.22 60.01Z" id="gaVR5jWWA"></path><path d="M179.74 147.99C179.3 130.83 165.62 117.25 149.2 117.7C132.79 118.14 119.82 132.44 120.26 149.6C120.7 166.77 134.38 180.34 150.8 179.9C167.21 179.45 180.18 165.16 179.74 147.99Z" id="bifwzzCCF"></path><path d="M69.66 99.99C69.66 104.49 67.28 108.16 64.33 108.16C57.23 108.16 41.24 108.16 34.14 108.16C31.2 108.16 28.81 104.49 28.81 99.99C28.81 96.34 28.81 93.54 28.81 89.89C28.81 85.39 31.2 81.72 34.14 81.72C41.24 81.72 57.23 81.72 64.33 81.72C67.28 81.72 69.66 85.39 69.66 89.89C69.66 93.54 69.66 96.34 69.66 99.99Z" id="d1Qsdz2LSr"></path></defs><g><g><g><use xlink:href="#edn4sVM2W" opacity="1" fill="#FFFFFF" fill-opacity="0"></use><g><use xlink:href="#edn4sVM2W" opacity="1" fill-opacity="0" stroke="#FFFFFF" stroke-width="7" stroke-opacity="1"></use></g></g><g><use xlink:href="#c2k4IZApCx" opacity="1" fill="#FFFFFF" fill-opacity="0"></use><g><use xlink:href="#c2k4IZApCx" opacity="1" fill-opacity="0" stroke="#FFFFFF" stroke-width="7" stroke-opacity="1"></use></g></g><g><use xlink:href="#gaVR5jWWA" opacity="1" fill="#FFFFFF" fill-opacity="0"></use><g><use xlink:href="#gaVR5jWWA" opacity="1" fill-opacity="0" stroke="#FFFFFF" stroke-width="7" stroke-opacity="1"></use></g></g><g><use xlink:href="#bifwzzCCF" opacity="1" fill="#090909" fill-opacity="1"></use><g><use xlink:href="#bifwzzCCF" opacity="1" fill-opacity="0" stroke="#FFFFFF" stroke-width="1" stroke-opacity="0"></use></g></g><g><use xlink:href="#d1Qsdz2LSr" opacity="1" fill="#FFFFFF" fill-opacity="0"></use><g><use xlink:href="#d1Qsdz2LSr" opacity="1" fill-opacity="0" stroke="#FFFFFF" stroke-width="7" stroke-opacity="1"></use></g></g></g></g></svg>