<?xml version="1.0" encoding="UTF-8" standalone="no"?>
<!DOCTYPE svg PUBLIC "-//W3C//DTD SVG 1.1//EN" "http://www.w3.org/Graphics/SVG/1.1/DTD/svg11.dtd">
<svg version="1.1" xmlns="http://www.w3.org/2000/svg" xmlns:xlink="http://www.w3.org/1999/xlink" preserveAspectRatio="xMidYMid meet" viewBox="0 0 640 640" width="640" height="640"><defs><path d="M204.64 211.51L205.05 211.54L205.45 211.59L205.84 211.66L206.21 211.74L206.57 211.83L206.93 211.93L207.27 212.05L207.6 212.18L207.92 212.32L208.23 212.47L208.54 212.64L208.83 212.82L209.12 213L209.39 213.2L209.66 213.41L209.93 213.63L210.18 213.85L210.43 214.09L210.67 214.34L210.91 214.6L211.14 214.86L211.36 215.13L211.58 215.41L211.79 215.7L212 216L212.21 216.3L212.41 216.61L212.6 216.93L212.8 217.25L212.99 217.58L213.18 217.92L213.36 218.26L213.55 218.6L213.73 218.96L213.91 219.31L214.09 219.67L214.27 220.03L214.45 220.4L220.08 234.54L408.64 234.54L409.03 234.55L409.43 234.58L409.82 234.62L410.2 234.68L410.58 234.76L410.96 234.86L411.33 234.97L411.69 235.09L412.04 235.23L412.39 235.39L412.74 235.56L413.07 235.75L413.4 235.95L413.72 236.16L414.04 236.39L414.34 236.62L414.63 236.88L414.92 237.14L415.2 237.41L415.47 237.7L415.72 238L415.97 238.31L416.21 238.63L416.43 238.96L416.64 239.3L416.85 239.65L417.04 240L417.22 240.37L417.38 240.75L417.54 241.13L417.68 241.52L417.8 241.92L417.92 242.32L418.01 242.73L418.1 243.15L418.17 243.57L418.22 244L418.26 244.44L418.29 244.88L418.3 245.32L418.3 439.34L418.29 439.78L418.26 440.22L418.22 440.65L418.17 441.08L418.1 441.51L418.01 441.92L417.92 442.34L417.8 442.74L417.68 443.14L417.54 443.53L417.38 443.91L417.22 444.29L417.04 444.65L416.85 445.01L416.64 445.36L416.43 445.7L416.21 446.03L415.97 446.35L415.72 446.66L415.47 446.96L415.2 447.24L414.92 447.52L414.63 447.78L414.34 448.03L414.04 448.27L413.72 448.5L413.4 448.71L413.07 448.91L412.74 449.1L412.39 449.27L412.04 449.42L411.69 449.56L411.33 449.69L410.96 449.8L410.58 449.89L410.2 449.97L409.82 450.03L409.43 450.08L409.03 450.1L408.64 450.11L118.86 450.11L118.47 450.1L118.07 450.08L117.68 450.03L117.3 449.97L116.92 449.89L116.54 449.8L116.17 449.69L115.81 449.56L115.46 449.42L115.11 449.27L114.76 449.1L114.43 448.91L114.1 448.71L113.78 448.5L113.46 448.27L113.16 448.03L112.87 447.78L112.58 447.52L112.3 447.24L112.03 446.96L111.78 446.66L111.53 446.35L111.29 446.03L111.07 445.7L110.86 445.36L110.65 445.01L110.46 444.65L110.28 444.29L110.12 443.91L109.96 443.53L109.82 443.14L109.7 442.74L109.58 442.34L109.49 441.92L109.4 441.51L109.33 441.08L109.28 440.65L109.24 440.22L109.21 439.78L109.2 439.34L109.2 245.32L109.21 244.88L109.24 244.44L109.28 244L109.33 243.57L109.4 243.15L109.49 242.73L109.58 242.32L109.7 241.92L109.82 241.52L109.96 241.13L110.12 240.75L110.28 240.37L110.46 240L110.65 239.65L110.86 239.3L111.07 238.96L111.29 238.63L111.53 238.31L111.78 238L112.03 237.7L112.3 237.41L112.58 237.14L112.87 236.88L113.16 236.62L113.46 236.39L113.78 236.16L114.1 235.95L114.43 235.75L114.76 235.56L115.11 235.39L115.46 235.23L115.81 235.09L116.17 234.97L116.54 234.86L116.92 234.76L117.3 234.68L117.68 234.62L118.07 234.58L118.47 234.55L118.86 234.54L123.51 234.54L129.14 220.4L129.27 220.03L129.41 219.67L129.55 219.31L129.7 218.96L129.85 218.6L130.01 218.26L130.17 217.92L130.34 217.58L130.52 217.25L130.7 216.93L130.89 216.61L131.08 216.3L131.29 216L131.5 215.7L131.71 215.41L131.94 215.13L132.17 214.86L132.41 214.6L132.65 214.34L132.91 214.09L133.17 213.85L133.44 213.63L133.71 213.41L134 213.2L134.29 213L134.6 212.82L134.91 212.64L135.23 212.47L135.56 212.32L135.9 212.18L136.24 212.05L136.6 211.93L136.97 211.83L137.34 211.74L137.73 211.66L138.12 211.59L138.53 211.54L138.94 211.51L139.37 211.48L139.8 211.48L203.79 211.48L204.22 211.48L204.64 211.51Z" id="j6CF7hjoL"></path><path d="M382.73 348.41C382.73 381.46 329.92 408.3 264.89 408.3C199.85 408.3 147.05 381.46 147.05 348.41C147.05 315.36 199.85 288.52 264.89 288.52C329.92 288.52 382.73 315.36 382.73 348.41Z" id="a9HteJrft8"></path><path d="M204.89 348.82C205.76 381.86 232.84 407.99 265.33 407.14C297.81 406.28 323.48 378.76 322.61 345.72C321.74 312.68 294.66 286.55 262.17 287.41C229.69 288.26 204.02 315.78 204.89 348.82Z" id="cqjifReJV"></path><path d="M300.68 202.95L364.32 202.95L364.32 233.64L300.68 233.64L300.68 202.95Z" id="aUiIiid7"></path><path d="M304.66 54.66L304.66 54.66L303.52 54.66L304.66 54.66Z" id="aJvivwKvu"></path><path d="M392.61 146.7C403.66 146.7 412.61 155.66 412.61 166.7C412.61 175.66 412.61 182.52 412.61 191.48C412.61 202.52 403.66 211.48 392.61 211.48C365.93 211.48 305.89 211.48 279.2 211.48C268.16 211.48 259.2 202.52 259.2 191.48C259.2 182.52 259.2 175.66 259.2 166.7C259.2 155.66 268.16 146.7 279.2 146.7C305.89 146.7 365.93 146.7 392.61 146.7Z" id="a1VytEOJ4"></path></defs><g><g><g><use xlink:href="#j6CF7hjoL" opacity="1" fill="#ffffff" fill-opacity="1"></use><g><use xlink:href="#j6CF7hjoL" opacity="1" fill-opacity="0" stroke="#020202" stroke-width="7" stroke-opacity="1"></use></g></g><g><use xlink:href="#a9HteJrft8" opacity="1" fill="#fcfbfb" fill-opacity="1"></use><g><use xlink:href="#a9HteJrft8" opacity="1" fill-opacity="0" stroke="#030303" stroke-width="7" stroke-opacity="1"></use></g></g><g><use xlink:href="#cqjifReJV" opacity="1" fill="#090909" fill-opacity="1"></use></g><g><use xlink:href="#aUiIiid7" opacity="1" fill="#fcfcfc" fill-opacity="1"></use><g><use xlink:href="#aUiIiid7" opacity="1" fill-opacity="0" stroke="#030303" stroke-width="7" stroke-opacity="1"></use></g></g><g><use xlink:href="#aJvivwKvu" opacity="1" fill="#fcfcfc" fill-opacity="1"></use></g><g><use xlink:href="#a1VytEOJ4" opacity="1" fill="#fcfcfc" fill-opacity="1"></use><g><use xlink:href="#a1VytEOJ4" opacity="1" fill-opacity="0" stroke="#030303" stroke-width="7" stroke-opacity="1"></use></g></g></g></g></svg>