<?xml version="1.0" encoding="UTF-8" standalone="no"?>
<!DOCTYPE svg PUBLIC "-//W3C//DTD SVG 1.1//EN" "http://www.w3.org/Graphics/SVG/1.1/DTD/svg11.dtd">
<svg version="1.1" xmlns="http://www.w3.org/2000/svg" xmlns:xlink="http://www.w3.org/1999/xlink" preserveAspectRatio="xMidYMid meet" viewBox="0 0 640 640" width="640" height="640"><defs><path d="M46.88 290.26C50.16 441.57 173.64 561.8 322.46 558.57C471.27 555.35 589.43 429.88 586.15 278.57C582.87 127.25 459.39 7.02 310.57 10.25C161.76 13.48 43.6 138.94 46.88 290.26Z" id="aqlfrLayR"></path><path d="M483.5 207.12C492.4 207.12 499.61 214.34 499.61 223.24C499.61 270.32 499.61 395.44 499.61 442.52C499.61 451.42 492.4 458.64 483.5 458.64C412.17 458.64 214.32 458.64 143 458.64C134.1 458.64 126.88 451.42 126.88 442.52C126.88 395.44 126.88 270.32 126.88 223.24C126.88 214.34 134.1 207.12 143 207.12C214.32 207.12 412.17 207.12 483.5 207.12Z" id="bu57XGnx0"></path><path d="M444.24 332.12C444.24 366.82 385.52 395 313.18 395C240.85 395 182.12 366.82 182.12 332.12C182.12 297.42 240.85 269.24 313.18 269.24C385.52 269.24 444.24 297.42 444.24 332.12Z" id="d2axtP2uBf"></path><path d="M366.27 330.96C367.03 365.65 343.89 394.34 314.63 394.98C285.37 395.63 260.99 367.98 260.23 333.29C259.47 298.59 282.61 269.9 311.87 269.26C341.13 268.61 365.5 296.26 366.27 330.96Z" id="ai7jCHT5J"></path><path d="M470.45 87.42C481.5 87.42 490.45 96.38 490.45 107.42C490.45 120.39 490.45 139.3 490.45 152.27C490.45 163.32 481.5 172.27 470.45 172.27C447.48 172.27 398.58 172.27 375.61 172.27C364.56 172.27 355.61 163.32 355.61 152.27C355.61 139.3 355.61 120.39 355.61 107.42C355.61 96.38 364.56 87.42 375.61 87.42C398.58 87.42 447.48 87.42 470.45 87.42Z" id="c1XvDEa9Ci"></path><path d="M399.14 177.27L399.4 207.73" id="a2lYedierg"></path><path d="M442.85 177.3L444.24 207.73" id="a2aETueR3"></path><path d="M228.9 186.25C228.51 198.38 212.24 207.72 192.6 207.09C172.95 206.46 157.32 196.11 157.7 183.97C158.09 171.84 174.35 162.5 194 163.13C213.65 163.75 229.28 174.11 228.9 186.25Z" id="bGen4uX0x"></path></defs><g><g><g><use xlink:href="#aqlfrLayR" opacity="1" fill="#000000" fill-opacity="1"></use></g><g><use xlink:href="#bu57XGnx0" opacity="1" fill="#000000" fill-opacity="1"></use><g><use xlink:href="#bu57XGnx0" opacity="1" fill-opacity="0" stroke="#fbfbfb" stroke-width="25" stroke-opacity="1"></use></g></g><g><use xlink:href="#d2axtP2uBf" opacity="1" fill="#fbf9f9" fill-opacity="1"></use><g><use xlink:href="#d2axtP2uBf" opacity="1" fill-opacity="0" stroke="#f8f5f5" stroke-width="22" stroke-opacity="1"></use></g></g><g><use xlink:href="#ai7jCHT5J" opacity="1" fill="#060606" fill-opacity="1"></use><g><use xlink:href="#ai7jCHT5J" opacity="1" fill-opacity="0" stroke="#000000" stroke-width="31" stroke-opacity="1"></use></g></g><g><use xlink:href="#c1XvDEa9Ci" opacity="1" fill="#000000" fill-opacity="1"></use><g><use xlink:href="#c1XvDEa9Ci" opacity="1" fill-opacity="0" stroke="#fcfcfc" stroke-width="20" stroke-opacity="1"></use></g></g><g><g><use xlink:href="#a2lYedierg" opacity="1" fill-opacity="0" stroke="#fefefe" stroke-width="13" stroke-opacity="1"></use></g></g><g><g><use xlink:href="#a2aETueR3" opacity="1" fill-opacity="0" stroke="#ffffff" stroke-width="13" stroke-opacity="1"></use></g></g><g><use xlink:href="#bGen4uX0x" opacity="1" fill="#fefcfc" fill-opacity="1"></use><g><use xlink:href="#bGen4uX0x" opacity="1" fill-opacity="0" stroke="#f9f9f9" stroke-width="21" stroke-opacity="1"></use></g></g></g></g></svg>